<?xml version="1.0" encoding="UTF-8" standalone="no"?>
<!-- Created with Inkscape (http://www.inkscape.org/) -->

<svg
   width="43.169331mm"
   height="49.951874mm"
   viewBox="0 0 43.169331 49.951874"
   version="1.1"
   id="svg1"
   inkscape:version="1.4.2 (ebf0e940d0, 2025-05-08)"
   sodipodi:docname="logo.svg"
   xmlns:inkscape="http://www.inkscape.org/namespaces/inkscape"
   xmlns:sodipodi="http://sodipodi.sourceforge.net/DTD/sodipodi-0.dtd"
   xmlns="http://www.w3.org/2000/svg"
   xmlns:svg="http://www.w3.org/2000/svg">
  <sodipodi:namedview
     id="namedview1"
     pagecolor="#ffffff"
     bordercolor="#000000"
     borderopacity="0.25"
     inkscape:showpageshadow="2"
     inkscape:pageopacity="0.0"
     inkscape:pagecheckerboard="0"
     inkscape:deskcolor="#d1d1d1"
     inkscape:document-units="mm"
     inkscape:zoom="2.2097881"
     inkscape:cx="48.194666"
     inkscape:cy="103.85611"
     inkscape:window-width="1920"
     inkscape:window-height="1128"
     inkscape:window-x="0"
     inkscape:window-y="0"
     inkscape:window-maximized="1"
     inkscape:current-layer="layer1" />
  <defs
     id="defs1" />
  <g
     inkscape:label="Layer 1"
     inkscape:groupmode="layer"
     id="layer1"
     transform="translate(-130.43959,-157.16251)">
    <g
       id="g46348"
       transform="translate(264.37834,733.26861)"
       style="fill:#141d2a;stroke:#000000">
      <g
         id="g57961"
         transform="rotate(-30,-112.35409,-551.13016)"
         style="fill:#141d2a;stroke:#000000">
        <g
           id="g57911"
           style="fill:#141d2a;stroke:#000000">
          <g
             id="g43251"
             transform="rotate(30,-112.35408,-551.13016)"
             style="fill:#141d2a;stroke:#000000" />
          <g
             id="g78484"
             transform="rotate(30,-112.35409,-551.13016)"
             style="fill:#141d2a;stroke:#000000">
            <g
               id="g78555"
               transform="rotate(-30,-112.35409,-551.13016)"
               style="fill:#141d2a;stroke:#000000">
              <path
                 sodipodi:type="star"
                 style="fill:#141d2a;fill-opacity:1;stroke:#000000;stroke-width:21.7043;stroke-miterlimit:4;stroke-dasharray:none;stroke-opacity:1"
                 id="path4560"
                 sodipodi:sides="6"
                 sodipodi:cx="-5551.2134"
                 sodipodi:cy="-204.52565"
                 sodipodi:r1="1701.6108"
                 sodipodi:r2="1473.6381"
                 sodipodi:arg1="1.0471976"
                 sodipodi:arg2="1.5707963"
                 inkscape:flatsided="true"
                 inkscape:rounded="0"
                 inkscape:randomized="0"
                 inkscape:transform-center-x="1.5731476e-05"
                 inkscape:transform-center-y="7.9344316e-05"
                 transform="matrix(-0.00728526,0.01261844,-0.01259211,-0.00727006,-155.37153,-482.56942)"
                 d="m -4700.408,1269.1126 -1701.6109,-10e-5 -850.8053,-1473.63823 850.8055,-1473.63817 1701.6108,10e-5 850.8054,1473.63823 z" />
            </g>
          </g>
        </g>
      </g>
    </g>
    <g
       id="g3"
       transform="matrix(2.1248382,0,0,2.1248382,-2.369368,3.441233)" />
    <g
       id="g1"
       transform="matrix(1.135542,0,0,1.135542,-20.255428,-21.549612)">
      <path
         fill="var(--tblr-color-accent, #066FD1)"
         d="m 76.561072,78.754966 a 2.3370645,2.3370646 0 0 0 -1.69201,-1.69201 14.789943,14.789944 0 0 0 -4.70588,0 2.3370645,2.3370646 0 0 0 -1.69201,1.69201 14.789943,14.789944 0 0 0 0,4.70588 2.3370645,2.3370646 0 0 0 1.69201,1.69201 c 1.55972,0.251354 3.14589,0.251354 4.70588,0 a 2.3370645,2.3370646 0 0 0 1.69201,-1.69201 c 0.25135,-1.559719 0.25135,-3.145896 0,-4.70588 z"
         class="logo-path"
         id="path2"
         style="fill:#ffffff;stroke-width:0.264583"
         transform="matrix(2.1248382,0,0,2.1248382,-2.369368,3.441233)" />
      <path
         fill="#ffffff"
         d="m 70.933652,82.814998 a 4.6302082,4.6302085 0 0 0 1.45467,-1.441715 0.58049582,0.58049585 0 0 0 0,-0.61595 c -0.37994,-0.576792 -0.86518,-1.061773 -1.45467,-1.42875 -0.2884,-0.183356 -0.66861,-0.07858 -0.85196,0.209815 -0.0132,0 -0.0132,0.01323 -0.0132,0.01323 a 0.6029854,0.60298543 0 0 0 0.22278,0.8255 c 0.30162,0.196585 0.56356,0.419364 0.79957,0.694795 a 3.1173208,3.1173209 0 0 1 -0.79957,0.694532 c -0.19659,0.104775 -0.31459,0.314589 -0.31459,0.537369 a 0.63447082,0.63447085 0 0 0 0.957,0.511175 z m 2.04443,-0.170392 h 1.4941 c 0.27517,0 0.49821,-0.130969 0.49821,-0.393171 0,-0.261937 -0.22304,-0.393171 -0.49821,-0.393171 h -1.4941 c -0.27517,0 -0.49795,0.130969 -0.49795,0.393171 0,0.261938 0.22278,0.393171 0.49795,0.393171 z"
         id="path3"
         style="fill:#141d2a;fill-opacity:1;stroke-width:0.264583"
         transform="matrix(2.1248382,0,0,2.1248382,-2.369368,3.441233)" />
      <path
         fill="#000427"
         d="m 151.11705,188.24485 c 0.30639,0 0.58473,0.0836 0.83555,0.2368 0.25056,0.16722 0.45959,0.39 0.58473,0.65458 0.15346,0.29236 0.22305,0.62653 0.22305,0.9607 0,0.36222 -0.0699,0.6686 -0.20902,0.96097 -0.12542,0.26458 -0.33417,0.50138 -0.58473,0.66834 -0.25083,0.15345 -0.52917,0.2368 -0.8218,0.2368 a 1.4419791,1.4419792 0 0 1 -0.59875,-0.12541 c -0.18098,-0.0836 -0.33417,-0.18098 -0.4736,-0.32015 v 0.0418 c 0,0.11112 -0.0415,0.20902 -0.11113,0.29236 -0.0696,0.0836 -0.16722,0.11139 -0.29236,0.11139 -0.20903,0 -0.39,-0.16721 -0.40402,-0.37597 v -4.24735 c 0,-0.11113 0.0418,-0.20903 0.11139,-0.29237 a 0.32808333,0.32808334 0 0 1 0.29263,-0.11139 c 0.11112,0 0.20875,0.0418 0.29236,0.11139 0.0696,0.0836 0.11113,0.18098 0.11113,0.29237 v 1.39276 c 0.12567,-0.15319 0.2786,-0.26458 0.44582,-0.34793 0.18097,-0.0976 0.38999,-0.13943 0.59875,-0.13943 z m -7.01834,2.88263 c 0.0556,0 0.12542,0.0278 0.16695,0.0836 0.0556,0.0556 0.0836,0.13917 0.0836,0.23681 0,0.12514 -0.0696,0.22278 -0.19499,0.30638 -0.12515,0.0833 -0.27835,0.12515 -0.44556,0.12515 -0.25056,0.014 -0.48737,-0.0556 -0.69612,-0.18097 -0.195,-0.11139 -0.27861,-0.37598 -0.27861,-0.75195 v -1.83832 h -0.30665 c -0.195,0.0138 -0.36195,-0.15346 -0.37597,-0.3482 v -0.0281 c 0,-0.0974 0.0418,-0.19473 0.11139,-0.26458 0.0696,-0.0696 0.16721,-0.0974 0.26458,-0.0974 h 0.30639 v -0.43153 c 0,-0.11113 0.0418,-0.20876 0.11139,-0.29237 a 0.32808333,0.32808334 0 0 1 0.29236,-0.11112 c 0.11139,0 0.20902,0.0415 0.27861,0.11112 0.0696,0.0836 0.11112,0.18098 0.11112,0.29237 v 0.4318 h 0.47361 c 0.19499,-0.014 0.36221,0.15319 0.37597,0.34819 v 0.0278 c 0,0.195 -0.16695,0.36195 -0.36195,0.36195 H 143.528 v 1.81054 c 0,0.0974 0.0278,0.16695 0.0696,0.20902 0.0556,0.0415 0.11139,0.0693 0.195,0.0693 0.0286,0 0.0574,-0.006 0.095,-0.0151 0.0172,-0.004 0.0362,-0.008 0.0582,-0.0127 0.0556,-0.0278 0.0974,-0.0418 0.1532,-0.0418 z m 3.89917,-2.88263 c 0.20902,0 0.38973,0.16722 0.40375,0.37597 v 2.85486 c 0,0.11112 -0.0418,0.20902 -0.11139,0.29236 -0.0696,0.0836 -0.16721,0.11139 -0.29236,0.11139 a 0.38893749,0.38893751 0 0 1 -0.27861,-0.11113 c -0.0696,-0.0839 -0.11139,-0.18123 -0.11139,-0.29262 a 1.4986,1.4986 0 0 1 -0.44556,0.33416 c -0.18097,0.0836 -0.38999,0.13918 -0.59875,0.13918 a 1.576652,1.5766521 0 0 1 -0.83555,-0.23654 c -0.25083,-0.16722 -0.45958,-0.39 -0.58473,-0.65458 a 2.0748625,2.0748626 0 0 1 -0.22305,-0.96097 c 0,-0.36195 0.0696,-0.66834 0.20902,-0.9607 0.12515,-0.26458 0.33417,-0.50139 0.58473,-0.6686 0.25056,-0.1532 0.52917,-0.23654 0.82154,-0.23654 0.40401,0 0.77999,0.13917 1.07235,0.41778 0,-0.11139 0.0418,-0.20902 0.11139,-0.29263 a 0.30268333,0.30268334 0 0 1 0.27861,-0.11113 z m -0.64056,2.64583 a 1.2533312,1.2533313 0 0 0 0.27834,-0.79375 c 0,-0.32014 -0.0974,-0.58473 -0.27834,-0.80751 a 0.87735831,0.87735836 0 0 0 -0.71041,-0.32014 c -0.29236,0 -0.51514,0.11112 -0.69611,0.32014 -0.18098,0.22278 -0.27861,0.51515 -0.27861,0.80751 0,0.32015 0.0976,0.58473 0.26458,0.79375 0.18098,0.20902 0.44556,0.33444 0.71014,0.32015 0.29263,0 0.52917,-0.11113 0.71041,-0.32015 z m 4.35848,0 c 0.18098,-0.22278 0.27861,-0.51514 0.27861,-0.80751 0,-0.32014 -0.0836,-0.58473 -0.26459,-0.79375 a 0.90090623,0.90090628 0 0 0 -0.71014,-0.32014 c -0.29236,0 -0.52916,0.11112 -0.71014,0.32014 a 1.2811125,1.2811125 0 0 0 -0.2786,0.79375 c 0,0.32015 0.0836,0.58473 0.27834,0.80751 0.18124,0.20902 0.44582,0.33444 0.7104,0.32015 0.29237,0 0.51515,-0.11113 0.69612,-0.32015 z m 2.59027,0.58473 c 0,0.11166 -0.0418,0.20902 -0.11139,0.29263 -0.0696,0.0836 -0.18097,0.11139 -0.29236,0.11139 a 0.38893749,0.38893751 0 0 1 -0.27861,-0.11113 c -0.0696,-0.0839 -0.11139,-0.18123 -0.11139,-0.29262 v -4.13597 c 0,-0.11113 0.0418,-0.20902 0.11113,-0.29237 0.0839,-0.0836 0.18124,-0.12541 0.29263,-0.11139 0.11139,0 0.20902,0.0418 0.2786,0.11139 0.0836,0.0836 0.11113,0.18098 0.11113,0.29237 v 4.13597 z m 3.95473,-1.19724 c 0.0836,-0.0699 0.12541,-0.15346 0.12541,-0.26458 0,-0.6268 -0.33417,-1.21179 -0.82153,-1.54596 -0.26458,-0.1532 -0.54319,-0.23654 -0.83555,-0.23654 -0.30639,0 -0.58473,0.0836 -0.84932,0.23654 a 1.7364604,1.7364605 0 0 0 -0.64082,0.6686 c -0.15319,0.27834 -0.2368,0.61277 -0.2368,1.00277 a 1.7803812,1.7803813 0 0 0 0.22305,0.93292 c 0.15292,0.26458 0.36195,0.48736 0.64029,0.64029 0.2786,0.15346 0.59901,0.23681 0.97499,0.23681 0.22278,0 0.43153,-0.0418 0.64055,-0.11113 a 1.6880416,1.6880417 0 0 0 0.50139,-0.26458 c 0.12515,-0.0836 0.18097,-0.19527 0.18097,-0.32041 0,-0.0976 -0.028,-0.16722 -0.0976,-0.23681 a 0.30506458,0.30506459 0 0 0 -0.23654,-0.0974 0.44185416,0.44185418 0 0 0 -0.22304,0.0556 l -0.12515,0.0696 c -0.0836,0.0556 -0.16721,0.0836 -0.25082,0.11139 -0.11139,0.0418 -0.25056,0.0556 -0.43154,0.0556 a 1.0067396,1.0067396 0 0 1 -1.01653,-0.83529 h 2.20028 c 0.11139,0 0.19473,-0.0278 0.27834,-0.0974 z m -1.57348,-1.30916 c 0.20876,0 0.40376,0.0696 0.55695,0.195 0.15319,0.12541 0.26458,0.29237 0.27861,0.48736 v 0.0418 h -1.75472 c 0.0974,-0.48736 0.40375,-0.72416 0.91916,-0.72416 z m 4.55348,-0.61277 c -0.0833,-0.0696 -0.195,-0.11113 -0.33417,-0.11113 -0.20875,0 -0.41777,0.0415 -0.59875,0.13917 -0.195,0.0974 -0.34819,0.23654 -0.44556,0.41778 v -0.0836 c 0,-0.11139 -0.0278,-0.20902 -0.11139,-0.29236 -0.0836,-0.0699 -0.18097,-0.11139 -0.29263,-0.11139 a 0.32781874,0.32781876 0 0 0 -0.29236,0.11112 c -0.0696,0.0836 -0.11139,0.18124 -0.11139,0.29263 v 2.7432 c 0,0.11139 0.0418,0.20902 0.11139,0.29263 0.0836,0.0696 0.16722,0.11113 0.29236,0.11113 0.12542,0 0.22305,-0.0278 0.29263,-0.11113 0.0696,-0.0836 0.11139,-0.18124 0.11139,-0.29263 v -1.5875 c -0.014,-0.18097 0.0278,-0.34819 0.0974,-0.51514 0.0558,-0.12542 0.15319,-0.2368 0.26458,-0.32015 0.13944,-0.0979 0.32041,-0.12541 0.48737,-0.0836 l 0.0836,0.0278 c 0.0836,0.0278 0.1532,0.0418 0.22278,0.0418 0.0976,0.0138 0.18098,-0.0281 0.25083,-0.0976 0.0833,-0.0696 0.11139,-0.16695 0.11139,-0.30639 0,-0.0974 -0.0558,-0.19473 -0.13944,-0.26458 z"
         class="logo-path"
         id="path1"
         style="fill:#ffffff;stroke-width:0.264583" />
    </g>
  </g>
</svg>
